<?xml version="1.0" standalone="no"?>
<!DOCTYPE svg PUBLIC "-//W3C//DTD SVG 20010904//EN"
 "http://www.w3.org/TR/2001/REC-SVG-20010904/DTD/svg10.dtd">
<svg version="1.0" xmlns="http://www.w3.org/2000/svg"
 width="512.000000pt" height="512.000000pt" viewBox="0 0 512.000000 512.000000"
 preserveAspectRatio="xMidYMid meet">
<metadata>
Created by potrace 1.14, written by Peter Selinger 2001-2017
</metadata>
<g transform="translate(0.000000,512.000000) scale(0.100000,-0.100000)"
fill="#000000" stroke="none">
<path d="M2210 5101 c-137 -21 -243 -44 -365 -78 -94 -27 -278 -94 -326 -119
-16 -8 -30 -14 -31 -13 -8 2 -214 -110 -301 -164 -102 -64 -265 -188 -357
-274 -47 -43 -77 -73 -195 -197 -16 -17 -60 -70 -96 -116 -293 -379 -462 -792
-529 -1295 -20 -146 -8 -560 19 -714 129 -712 513 -1303 1112 -1709 301 -204
701 -354 1084 -407 129 -17 537 -18 665 0 343 46 675 160 967 331 119 69 292
190 323 225 3 3 16 12 28 21 56 38 272 260 359 368 296 370 482 819 543 1311
19 152 8 555 -19 704 -34 192 -80 361 -140 515 -37 95 -135 297 -184 380 -187
315 -443 587 -763 811 -47 32 -86 59 -89 59 -2 0 -39 21 -82 46 -221 131 -527
244 -798 293 -60 11 -126 23 -145 27 -19 3 -154 8 -300 9 -213 3 -287 0 -380
-14z"/>
</g>
</svg>
